<svg xmlns="http://www.w3.org/2000/svg" version="1.1" xmlns:xlink="http://www.w3.org/1999/xlink" xmlns:svgjs="http://svgjs.dev/svgjs" width="1440" height="560" preserveAspectRatio="none" viewBox="0 0 1440 560"><g mask="url(&quot;#SvgjsMask1101&quot;)" fill="none"><rect width="1440" height="560" x="0" y="0" fill="#0e2a47"></rect><path d="M197.86 106.37L262.81 143.87L262.81 218.87L197.86 256.37L132.91 218.87L132.91 143.87zM392.72 443.87L457.68 481.37L457.68 556.37L392.72 593.87L327.77 556.37L327.77 481.37zM652.54 218.87L717.49 256.37L717.49 331.37L652.54 368.87L587.58 331.37L587.58 256.37zM782.44 218.87L847.4 256.37L847.4 331.37L782.44 368.87L717.49 331.37L717.49 256.37zM912.35 -6.13L977.31 31.37L977.31 106.37L912.35 143.87L847.4 106.37L847.4 31.37zM1237.12 106.37L1302.07 143.87L1302.07 218.87L1237.12 256.37L1172.17 218.87L1172.17 143.87zM1367.03 106.37L1431.98 143.87L1431.98 218.87L1367.03 256.37L1302.08 218.87L1302.08 143.87zM1496.94 331.37L1561.89 368.87L1561.89 443.87L1496.94 481.37L1431.98 443.87L1431.98 368.87z" stroke="rgba(0, 50, 87, 1)" stroke-width="2"></path><path d="M190.36 106.37 a7.5 7.5 0 1 0 15 0 a7.5 7.5 0 1 0 -15 0zM255.31 143.87 a7.5 7.5 0 1 0 15 0 a7.5 7.5 0 1 0 -15 0zM255.31 218.87 a7.5 7.5 0 1 0 15 0 a7.5 7.5 0 1 0 -15 0zM190.36 256.37 a7.5 7.5 0 1 0 15 0 a7.5 7.5 0 1 0 -15 0zM125.41 218.87 a7.5 7.5 0 1 0 15 0 a7.5 7.5 0 1 0 -15 0zM125.41 143.87 a7.5 7.5 0 1 0 15 0 a7.5 7.5 0 1 0 -15 0zM385.22 443.87 a7.5 7.5 0 1 0 15 0 a7.5 7.5 0 1 0 -15 0zM450.18 481.37 a7.5 7.5 0 1 0 15 0 a7.5 7.5 0 1 0 -15 0zM450.18 556.37 a7.5 7.5 0 1 0 15 0 a7.5 7.5 0 1 0 -15 0zM385.22 593.87 a7.5 7.5 0 1 0 15 0 a7.5 7.5 0 1 0 -15 0zM320.27 556.37 a7.5 7.5 0 1 0 15 0 a7.5 7.5 0 1 0 -15 0zM320.27 481.37 a7.5 7.5 0 1 0 15 0 a7.5 7.5 0 1 0 -15 0zM645.04 218.87 a7.5 7.5 0 1 0 15 0 a7.5 7.5 0 1 0 -15 0zM709.99 256.37 a7.5 7.5 0 1 0 15 0 a7.5 7.5 0 1 0 -15 0zM709.99 331.37 a7.5 7.5 0 1 0 15 0 a7.5 7.5 0 1 0 -15 0zM645.04 368.87 a7.5 7.5 0 1 0 15 0 a7.5 7.5 0 1 0 -15 0zM580.08 331.37 a7.5 7.5 0 1 0 15 0 a7.5 7.5 0 1 0 -15 0zM580.08 256.37 a7.5 7.5 0 1 0 15 0 a7.5 7.5 0 1 0 -15 0zM774.94 218.87 a7.5 7.5 0 1 0 15 0 a7.5 7.5 0 1 0 -15 0zM839.9 256.37 a7.5 7.5 0 1 0 15 0 a7.5 7.5 0 1 0 -15 0zM839.9 331.37 a7.5 7.5 0 1 0 15 0 a7.5 7.5 0 1 0 -15 0zM774.94 368.87 a7.5 7.5 0 1 0 15 0 a7.5 7.5 0 1 0 -15 0zM904.85 -6.13 a7.5 7.5 0 1 0 15 0 a7.5 7.5 0 1 0 -15 0zM969.81 31.37 a7.5 7.5 0 1 0 15 0 a7.5 7.5 0 1 0 -15 0zM969.81 106.37 a7.5 7.5 0 1 0 15 0 a7.5 7.5 0 1 0 -15 0zM904.85 143.87 a7.5 7.5 0 1 0 15 0 a7.5 7.5 0 1 0 -15 0zM839.9 106.37 a7.5 7.5 0 1 0 15 0 a7.5 7.5 0 1 0 -15 0zM839.9 31.37 a7.5 7.5 0 1 0 15 0 a7.5 7.5 0 1 0 -15 0zM1229.62 106.37 a7.5 7.5 0 1 0 15 0 a7.5 7.5 0 1 0 -15 0zM1294.57 143.87 a7.5 7.5 0 1 0 15 0 a7.5 7.5 0 1 0 -15 0zM1294.57 218.87 a7.5 7.5 0 1 0 15 0 a7.5 7.5 0 1 0 -15 0zM1229.62 256.37 a7.5 7.5 0 1 0 15 0 a7.5 7.5 0 1 0 -15 0zM1164.67 218.87 a7.5 7.5 0 1 0 15 0 a7.5 7.5 0 1 0 -15 0zM1164.67 143.87 a7.5 7.5 0 1 0 15 0 a7.5 7.5 0 1 0 -15 0zM1359.53 106.37 a7.5 7.5 0 1 0 15 0 a7.5 7.5 0 1 0 -15 0zM1424.48 143.87 a7.5 7.5 0 1 0 15 0 a7.5 7.5 0 1 0 -15 0zM1424.48 218.87 a7.5 7.5 0 1 0 15 0 a7.5 7.5 0 1 0 -15 0zM1359.53 256.37 a7.5 7.5 0 1 0 15 0 a7.5 7.5 0 1 0 -15 0zM1294.58 218.87 a7.5 7.5 0 1 0 15 0 a7.5 7.5 0 1 0 -15 0zM1294.58 143.87 a7.5 7.5 0 1 0 15 0 a7.5 7.5 0 1 0 -15 0zM1489.44 331.37 a7.5 7.5 0 1 0 15 0 a7.5 7.5 0 1 0 -15 0zM1554.39 368.87 a7.5 7.5 0 1 0 15 0 a7.5 7.5 0 1 0 -15 0zM1554.39 443.87 a7.5 7.5 0 1 0 15 0 a7.5 7.5 0 1 0 -15 0zM1489.44 481.37 a7.5 7.5 0 1 0 15 0 a7.5 7.5 0 1 0 -15 0zM1424.48 443.87 a7.5 7.5 0 1 0 15 0 a7.5 7.5 0 1 0 -15 0zM1424.48 368.87 a7.5 7.5 0 1 0 15 0 a7.5 7.5 0 1 0 -15 0z" fill="rgba(0, 50, 87, 1)"></path><path d="M28.52 122.82L71.82 147.82L71.82 197.82L28.52 222.82L-14.78 197.82L-14.78 147.82zM28.52 272.82L71.82 297.82L71.82 347.82L28.52 372.82L-14.78 347.82L-14.78 297.82zM71.82 497.82L115.13 522.82L115.13 572.82L71.82 597.82L28.52 572.82L28.52 522.82zM201.73 272.82L245.03 297.82L245.03 347.82L201.73 372.82L158.43 347.82L158.43 297.82zM288.33 -27.18L331.64 -2.18L331.64 47.82L288.33 72.82L245.03 47.82L245.03 -2.18zM331.64 47.82L374.94 72.82L374.94 122.82L331.64 147.82L288.33 122.82L288.33 72.82zM288.33 272.82L331.64 297.82L331.64 347.82L288.33 372.82L245.03 347.82L245.03 297.82zM331.64 347.82L374.94 372.82L374.94 422.82L331.64 447.82L288.33 422.82L288.33 372.82zM418.24 347.82L461.55 372.82L461.55 422.82L418.24 447.82L374.94 422.82L374.94 372.82zM374.94 422.82L418.24 447.82L418.24 497.82L374.94 522.82L331.64 497.82L331.64 447.82zM418.24 497.82L461.55 522.82L461.55 572.82L418.24 597.82L374.94 572.82L374.94 522.82zM461.55 272.82L504.85 297.82L504.85 347.82L461.55 372.82L418.24 347.82L418.24 297.82zM461.55 422.82L504.85 447.82L504.85 497.82L461.55 522.82L418.24 497.82L418.24 447.82zM504.85 497.82L548.15 522.82L548.15 572.82L504.85 597.82L461.55 572.82L461.55 522.82zM548.15 -27.18L591.45 -2.18L591.45 47.82L548.15 72.82L504.85 47.82L504.85 -2.18zM591.45 47.82L634.75 72.82L634.75 122.82L591.45 147.82L548.15 122.82L548.15 72.82zM634.75 -27.18L678.06 -2.18L678.06 47.82L634.75 72.82L591.45 47.82L591.45 -2.18zM678.06 47.82L721.36 72.82L721.36 122.82L678.06 147.82L634.75 122.82L634.75 72.82zM678.06 197.82L721.36 222.82L721.36 272.82L678.06 297.82L634.75 272.82L634.75 222.82zM721.36 422.82L764.66 447.82L764.66 497.82L721.36 522.82L678.06 497.82L678.06 447.82zM764.66 497.82L807.97 522.82L807.97 572.82L764.66 597.82L721.36 572.82L721.36 522.82zM851.27 197.82L894.57 222.82L894.57 272.82L851.27 297.82L807.97 272.82L807.97 222.82zM851.27 497.82L894.57 522.82L894.57 572.82L851.27 597.82L807.97 572.82L807.97 522.82zM894.57 -27.18L937.87 -2.18L937.87 47.82L894.57 72.82L851.27 47.82L851.27 -2.18zM894.57 272.82L937.87 297.82L937.87 347.82L894.57 372.82L851.27 347.82L851.27 297.82zM937.87 347.82L981.18 372.82L981.18 422.82L937.87 447.82L894.57 422.82L894.57 372.82zM981.18 122.82L1024.48 147.82L1024.48 197.82L981.18 222.82L937.87 197.82L937.87 147.82zM1024.48 197.82L1067.78 222.82L1067.78 272.82L1024.48 297.82L981.18 272.82L981.18 222.82zM1067.78 272.82L1111.08 297.82L1111.08 347.82L1067.78 372.82L1024.48 347.82L1024.48 297.82zM1197.69 47.82L1240.99 72.82L1240.99 122.82L1197.69 147.82L1154.38 122.82L1154.38 72.82zM1284.29 197.82L1327.6 222.82L1327.6 272.82L1284.29 297.82L1240.99 272.82L1240.99 222.82zM1284.29 347.82L1327.6 372.82L1327.6 422.82L1284.29 447.82L1240.99 422.82L1240.99 372.82zM1240.99 422.82L1284.29 447.82L1284.29 497.82L1240.99 522.82L1197.69 497.82L1197.69 447.82zM1284.29 497.82L1327.6 522.82L1327.6 572.82L1284.29 597.82L1240.99 572.82L1240.99 522.82zM1370.9 347.82L1414.2 372.82L1414.2 422.82L1370.9 447.82L1327.6 422.82L1327.6 372.82zM1327.6 422.82L1370.9 447.82L1370.9 497.82L1327.6 522.82L1284.29 497.82L1284.29 447.82zM1457.5 47.82L1500.81 72.82L1500.81 122.82L1457.5 147.82L1414.2 122.82L1414.2 72.82zM1457.5 197.82L1500.81 222.82L1500.81 272.82L1457.5 297.82L1414.2 272.82L1414.2 222.82z" stroke="rgba(0, 82, 144, 1)" stroke-width="2"></path></g><defs><mask id="SvgjsMask1101"><rect width="1440" height="560" fill="#ffffff"></rect></mask></defs></svg>